<?xml version="1.0" standalone="no"?>
<!DOCTYPE svg PUBLIC "-//W3C//DTD SVG 20010904//EN"
 "http://www.w3.org/TR/2001/REC-SVG-20010904/DTD/svg10.dtd">
<svg version="1.0" xmlns="http://www.w3.org/2000/svg"
 width="280.000000pt" height="280.000000pt" viewBox="0 0 280.000000 280.000000"
 preserveAspectRatio="xMidYMid meet">

<g transform="translate(0.000000,280.000000) scale(0.100000,-0.100000)"
fill="#000000" stroke="none">
<path d="M0 1400 l0 -1400 1400 0 1400 0 0 1400 0 1400 -1400 0 -1400 0 0
-1400z m1737 935 c54 -14 134 -42 178 -63 73 -36 224 -140 254 -176 11 -13 -3
-31 -89 -117 l-101 -101 -32 30 c-55 52 -158 111 -241 139 -70 23 -97 27 -206
27 -108 0 -136 -4 -205 -27 -287 -95 -474 -351 -475 -649 0 -187 64 -342 200
-479 135 -136 284 -199 470 -201 163 -1 295 43 424 141 l69 53 98 -98 99 -98
-33 -34 c-44 -47 -139 -113 -216 -152 -266 -133 -597 -133 -863 0 -367 183
-585 594 -528 995 38 264 173 493 383 651 118 88 300 163 447 184 99 13 257 3
367 -25z m-364 -386 c10 -45 15 -85 10 -89 -4 -4 -25 -13 -45 -19 -54 -18
-149 -82 -189 -129 -205 -240 -134 -601 146 -737 80 -39 173 -57 254 -49 l56
6 18 -82 c9 -46 15 -86 12 -88 -11 -11 -132 -21 -185 -15 -158 15 -294 79
-404 187 -123 123 -184 257 -193 426 -16 283 146 536 414 646 32 13 65 24 73
24 11 0 20 -23 33 -81z m-132 -295 l46 -46 -33 -49 c-130 -193 12 -459 246
-459 53 0 135 27 168 55 17 14 34 25 39 25 5 0 30 -22 57 -49 l47 -48 -39 -32
c-22 -17 -67 -44 -99 -59 -53 -24 -69 -27 -173 -27 -109 0 -119 2 -183 32
-170 81 -266 243 -254 430 4 63 12 97 34 145 28 59 77 128 91 128 3 0 27 -21
53 -46z"/>
</g>
</svg>
