<?xml version="1.0" standalone="no"?>
<!DOCTYPE svg PUBLIC "-//W3C//DTD SVG 20010904//EN"
 "http://www.w3.org/TR/2001/REC-SVG-20010904/DTD/svg10.dtd">
<svg version="1.0" xmlns="http://www.w3.org/2000/svg"
 width="225.000000pt" height="225.000000pt" viewBox="0 0 225.000000 225.000000"
 preserveAspectRatio="xMidYMid meet">

<g transform="translate(0.000000,225.000000) scale(0.100000,-0.100000)"
fill="#000000" stroke="none">
<path d="M1011 2109 c-374 -45 -700 -307 -820 -657 -12 -35 -19 -67 -16 -73 4
-5 2 -9 -3 -9 -28 0 -39 -252 -13 -297 12 -22 70 -27 78 -7 4 10 8 12 12 5 4
-6 12 42 19 107 24 239 108 413 278 571 152 142 322 215 531 228 219 13 420
-52 595 -193 73 -59 105 -67 138 -34 44 44 20 88 -88 169 -201 148 -468 220
-711 190z"/>
<path d="M801 1764 c-268 -134 -427 -429 -390 -723 15 -127 65 -256 128 -331
11 -14 20 -19 21 -12 0 7 5 10 10 7 6 -3 10 -1 10 5 0 6 -8 9 -18 6 -12 -4
-19 -1 -19 7 0 9 7 12 19 9 12 -3 18 1 18 12 0 9 5 16 10 16 6 0 10 -8 10 -17
1 -17 1 -17 11 0 8 13 7 22 -1 33 -8 9 -9 14 -2 14 6 0 14 -4 17 -10 3 -5 11
-10 17 -10 6 0 1 11 -12 25 -13 14 -20 25 -17 25 4 0 -2 18 -13 41 -12 22 -30
75 -41 116 -73 288 84 589 361 693 70 26 91 59 68 107 -11 23 -20 29 -54 31
-31 2 -60 -7 -133 -44z"/>
<path d="M827 1459 c-37 -22 -107 -131 -128 -201 -32 -104 -25 -230 18 -318
18 -36 41 -75 52 -88 l20 -23 36 23 c22 14 34 29 32 39 -3 9 2 16 9 16 7 0 11
-3 9 -7 -2 -4 2 -7 9 -7 8 0 0 21 -20 54 -78 130 -67 269 31 389 40 49 44 84
13 114 -24 22 -53 25 -81 9z"/>
<path d="M141 1034 c0 -11 3 -14 6 -6 3 7 2 16 -1 19 -3 4 -6 -2 -5 -13z"/>
</g>
</svg>
